<svg width="374" height="162" viewBox="0 0 374 162" fill="none" xmlns="http://www.w3.org/2000/svg">
<path d="M150.656 101.75C150.656 102.062 150.604 102.375 150.5 102.688C150.417 102.979 150.323 103.271 150.219 103.562C149.76 104.75 149.198 105.854 148.531 106.875C147.865 107.875 147.094 108.74 146.219 109.469C145.344 110.198 144.354 110.771 143.25 111.188C142.146 111.604 140.927 111.812 139.594 111.812C137.823 111.812 136.302 111.438 135.031 110.688C133.76 109.938 132.677 108.969 131.781 107.781C130.885 106.573 130.146 105.229 129.562 103.75C129 102.271 128.552 100.792 128.219 99.3125C127.719 97.1667 127.333 95.0208 127.062 92.875C126.792 90.7083 126.656 88.5417 126.656 86.375C126.656 85.1042 126.708 83.7917 126.812 82.4375C126.938 81.0833 127.146 79.75 127.438 78.4375C127.729 77.1042 128.125 75.8229 128.625 74.5938C129.125 73.3438 129.75 72.1979 130.5 71.1562C131.25 70.0938 132.135 69.1562 133.156 68.3438C134.198 67.5312 135.406 66.8958 136.781 66.4375C137.281 66.25 137.802 66.125 138.344 66.0625C138.885 65.9792 139.427 65.9375 139.969 65.9375C141.052 65.9375 142.083 66.1146 143.062 66.4688C144.042 66.8229 144.896 67.3229 145.625 67.9688C146.375 68.6146 146.958 69.3958 147.375 70.3125C147.812 71.2292 148.031 72.25 148.031 73.375C148.031 73.75 147.948 74.0312 147.781 74.2188C147.615 74.4062 147.323 74.5 146.906 74.5C146.135 74.5 145.531 74.375 145.094 74.125C144.677 73.875 144.333 73.5625 144.062 73.1875C143.792 72.8125 143.562 72.4062 143.375 71.9688C143.208 71.5312 143 71.125 142.75 70.75C142.5 70.375 142.167 70.0625 141.75 69.8125C141.333 69.5625 140.76 69.4375 140.031 69.4375C139.302 69.4375 138.615 69.5833 137.969 69.875C137.344 70.1458 136.76 70.5104 136.219 70.9688C135.698 71.4271 135.219 71.9479 134.781 72.5312C134.365 73.0938 133.99 73.6667 133.656 74.25C132.781 75.875 132.167 77.6146 131.812 79.4688C131.458 81.3021 131.281 83.1458 131.281 85C131.281 85.625 131.302 86.4375 131.344 87.4375C131.406 88.4167 131.49 89.5 131.594 90.6875C131.719 91.875 131.885 93.1354 132.094 94.4688C132.302 95.7812 132.552 97.0729 132.844 98.3438C133.156 99.6146 133.521 100.833 133.938 102C134.375 103.167 134.865 104.188 135.406 105.062C135.969 105.938 136.594 106.635 137.281 107.156C137.99 107.677 138.781 107.938 139.656 107.938C140.552 107.938 141.344 107.708 142.031 107.25C142.719 106.771 143.302 106.177 143.781 105.469C144.281 104.74 144.688 103.958 145 103.125C145.333 102.271 145.594 101.479 145.781 100.75C145.844 100.542 145.896 100.354 145.938 100.188C146 100.021 146.073 99.875 146.156 99.75C146.26 99.625 146.385 99.5312 146.531 99.4688C146.677 99.4062 146.885 99.375 147.156 99.375C147.448 99.375 147.792 99.4375 148.188 99.5625C148.604 99.6667 148.99 99.8229 149.344 100.031C149.719 100.24 150.031 100.49 150.281 100.781C150.531 101.073 150.656 101.396 150.656 101.75ZM188.785 86.6875C188.785 87.625 188.545 88.2917 188.066 88.6875C187.587 89.0625 186.91 89.3333 186.035 89.5C186.222 92.7083 186.337 95.8958 186.379 99.0625C186.441 102.229 186.472 105.417 186.472 108.625C186.472 109.125 186.368 109.51 186.16 109.781C185.952 110.052 185.577 110.188 185.035 110.188C184.577 110.188 184.118 110.135 183.66 110.031C183.222 109.927 182.827 109.771 182.472 109.562C182.118 109.333 181.827 109.042 181.597 108.688C181.389 108.312 181.285 107.854 181.285 107.312V97.5625C181.285 96.3333 181.285 95.1042 181.285 93.875C181.285 92.6458 181.264 91.4167 181.222 90.1875C179.431 90.4375 177.639 90.6562 175.847 90.8438C174.056 91.0104 172.264 91.125 170.472 91.1875C170.535 95.625 170.66 100.062 170.847 104.5C170.91 105.417 170.972 106.312 171.035 107.188C171.118 108.062 171.16 108.938 171.16 109.812C171.16 110.229 171.045 110.542 170.816 110.75C170.587 110.958 170.264 111.062 169.847 111.062C169.535 111.062 169.202 111.042 168.847 111C168.493 110.938 168.139 110.844 167.785 110.719C167.452 110.594 167.139 110.438 166.847 110.25C166.556 110.062 166.327 109.833 166.16 109.562C166.097 109.458 166.045 109.146 166.004 108.625C165.962 108.104 165.92 107.448 165.879 106.656C165.858 105.865 165.837 104.969 165.816 103.969C165.795 102.969 165.785 101.938 165.785 100.875C165.785 99.8125 165.785 98.7708 165.785 97.75C165.785 96.7083 165.785 95.75 165.785 94.875C165.785 94 165.785 93.2396 165.785 92.5938C165.785 91.9479 165.785 91.5 165.785 91.25C165.493 91.25 165.233 91.1875 165.004 91.0625C164.775 90.9167 164.66 90.6875 164.66 90.375C164.66 90 164.764 89.6458 164.972 89.3125C165.202 88.9583 165.472 88.6667 165.785 88.4375V69.5625C165.785 69.1458 165.858 68.8125 166.004 68.5625C166.17 68.3125 166.472 68.1875 166.91 68.1875C167.618 68.1875 168.181 68.2917 168.597 68.5C169.035 68.7083 169.358 69 169.566 69.375C169.795 69.7292 169.941 70.1667 170.004 70.6875C170.087 71.1875 170.139 71.7292 170.16 72.3125C170.222 74.8542 170.264 77.3958 170.285 79.9375C170.306 82.4792 170.347 85.0208 170.41 87.5625C172.202 87.3958 173.983 87.2292 175.754 87.0625C177.525 86.875 179.306 86.6042 181.097 86.25C180.993 84.0417 180.858 81.8542 180.691 79.6875C180.545 77.5208 180.327 75.3333 180.035 73.125C179.868 72.0833 179.67 71.0521 179.441 70.0312C179.212 68.9896 179.097 67.9375 179.097 66.875C179.097 66.5 179.233 66.2604 179.504 66.1562C179.795 66.0521 180.097 66 180.41 66C180.91 66 181.41 66.0833 181.91 66.25C182.431 66.4167 182.847 66.7083 183.16 67.125C183.347 67.3958 183.545 67.9688 183.754 68.8438C183.962 69.6979 184.15 70.7188 184.316 71.9062C184.504 73.0938 184.681 74.375 184.847 75.75C185.014 77.125 185.16 78.4479 185.285 79.7188C185.41 80.9688 185.514 82.1042 185.597 83.125C185.702 84.125 185.764 84.8542 185.785 85.3125C186.035 85.25 186.295 85.1979 186.566 85.1562C186.837 85.0938 187.097 85.0625 187.347 85.0625C187.847 85.0625 188.212 85.2188 188.441 85.5312C188.67 85.8229 188.785 86.2083 188.785 86.6875ZM222.101 106.5C222.101 107.104 221.945 107.677 221.632 108.219C221.32 108.74 220.893 109.125 220.351 109.375C220.185 109.458 219.778 109.542 219.132 109.625C218.487 109.688 217.789 109.75 217.039 109.812C216.289 109.875 215.57 109.938 214.882 110C214.216 110.062 213.747 110.104 213.476 110.125C213.414 110.479 213.247 110.729 212.976 110.875C212.705 111 212.414 111.062 212.101 111.062C211.747 111.062 211.341 111.01 210.882 110.906C210.424 110.802 210.018 110.688 209.664 110.562C208.726 110.688 207.778 110.823 206.82 110.969C205.862 111.115 204.893 111.188 203.914 111.188C203.164 111.188 202.789 110.833 202.789 110.125C202.789 109.417 202.987 108.875 203.382 108.5C203.778 108.125 204.257 107.844 204.82 107.656C205.382 107.469 205.987 107.344 206.632 107.281C207.278 107.219 207.851 107.146 208.351 107.062C208.247 101.146 208.132 95.2708 208.007 89.4375C207.903 83.6042 207.851 77.7292 207.851 71.8125C206.997 71.875 206.164 71.9375 205.351 72C204.539 72.0417 203.726 72.0625 202.914 72.0625C202.747 72.0625 202.57 72.0625 202.382 72.0625C202.195 72.0417 202.018 72.0104 201.851 71.9688C201.705 71.9062 201.58 71.8229 201.476 71.7188C201.351 71.5938 201.289 71.4167 201.289 71.1875C201.289 70.7917 201.372 70.4479 201.539 70.1562C201.705 69.8438 201.924 69.5938 202.195 69.4062C202.487 69.1979 202.799 69.0312 203.132 68.9062C203.466 68.7812 203.81 68.6875 204.164 68.625C205.06 68.4583 205.966 68.3229 206.882 68.2188C207.82 68.0938 208.747 67.9792 209.664 67.875C210.601 67.75 211.528 67.625 212.445 67.5C213.382 67.375 214.31 67.2083 215.226 67C216.101 66.8125 216.976 66.5729 217.851 66.2812C218.726 65.9688 219.622 65.8125 220.539 65.8125C221.039 65.8125 221.372 66 221.539 66.375C221.705 66.7292 221.789 67.125 221.789 67.5625C221.789 67.9167 221.747 68.2604 221.664 68.5938C221.601 68.9062 221.455 69.2083 221.226 69.5C221.101 69.6667 220.82 69.8333 220.382 70C219.966 70.1458 219.455 70.2812 218.851 70.4062C218.268 70.5312 217.632 70.6562 216.945 70.7812C216.278 70.8854 215.622 70.9896 214.976 71.0938C214.351 71.1771 213.778 71.25 213.257 71.3125C212.737 71.375 212.351 71.4167 212.101 71.4375C212.33 74.3333 212.487 77.2292 212.57 80.125C212.674 83.0208 212.757 85.9167 212.82 88.8125C212.882 91.7083 212.945 94.6042 213.007 97.5C213.07 100.396 213.185 103.292 213.351 106.188C214.539 106 215.737 105.823 216.945 105.656C218.153 105.469 219.372 105.375 220.601 105.375C220.955 105.375 221.289 105.458 221.601 105.625C221.935 105.771 222.101 106.062 222.101 106.5ZM256.542 108.438C256.542 108.812 256.501 109.188 256.417 109.562C256.355 109.917 256.23 110.24 256.042 110.531C255.876 110.802 255.647 111.021 255.355 111.188C255.063 111.354 254.688 111.438 254.23 111.438C253.667 111.438 253.209 111.312 252.855 111.062C252.522 110.833 252.209 110.5 251.917 110.062C251.522 109.5 251.167 108.854 250.855 108.125C250.542 107.375 250.261 106.615 250.011 105.844C249.761 105.052 249.522 104.271 249.292 103.5C249.084 102.708 248.876 101.979 248.667 101.312C247.542 97.8125 246.49 94.3229 245.511 90.8438C244.553 87.3646 243.522 83.875 242.417 80.375C242.313 84.8958 242.23 89.3958 242.167 93.875C242.126 98.3542 242.105 102.854 242.105 107.375C242.105 107.604 242.095 107.865 242.074 108.156C242.053 108.448 242.001 108.729 241.917 109C241.834 109.25 241.699 109.469 241.511 109.656C241.345 109.844 241.105 109.938 240.792 109.938C239.73 109.938 238.917 109.656 238.355 109.094C237.813 108.51 237.542 107.688 237.542 106.625C237.542 100.771 237.553 94.9688 237.574 89.2188C237.595 83.4688 237.605 77.6875 237.605 71.875V67.4375C237.605 66.9583 237.688 66.5625 237.855 66.25C238.042 65.9167 238.438 65.75 239.042 65.75C239.459 65.75 239.886 65.8125 240.324 65.9375C240.761 66.0417 241.147 66.2083 241.48 66.4375C241.834 66.6667 242.115 66.9688 242.324 67.3438C242.553 67.6979 242.667 68.125 242.667 68.625C243.542 70.2917 244.272 72.0104 244.855 73.7812C245.459 75.5521 246.042 77.3333 246.605 79.125C247.417 81.7292 248.22 84.3333 249.011 86.9375C249.803 89.5417 250.605 92.1667 251.417 94.8125C251.292 90.875 251.157 86.9479 251.011 83.0312C250.886 79.0938 250.626 75.1667 250.23 71.25C250.126 70.3958 250.001 69.5625 249.855 68.75C249.73 67.9375 249.667 67.1042 249.667 66.25C249.667 65.8125 249.813 65.5208 250.105 65.375C250.397 65.2083 250.73 65.125 251.105 65.125C251.751 65.125 252.303 65.1771 252.761 65.2812C253.22 65.3854 253.605 65.5625 253.917 65.8125C254.23 66.0625 254.47 66.4062 254.636 66.8438C254.803 67.2604 254.938 67.7917 255.042 68.4375C255.167 69.5625 255.261 70.6979 255.324 71.8438C255.407 72.9688 255.48 74.0833 255.542 75.1875C255.73 77.9792 255.865 80.75 255.949 83.5C256.032 86.25 256.105 89.0208 256.167 91.8125C256.23 94.5833 256.303 97.3542 256.386 100.125C256.49 102.875 256.542 105.646 256.542 108.438ZM295.515 104.188C295.515 104.542 295.369 104.885 295.077 105.219C294.807 105.552 294.473 105.875 294.077 106.188C293.682 106.5 293.275 106.792 292.859 107.062C292.442 107.312 292.098 107.521 291.827 107.688C291.119 108.146 290.411 108.573 289.702 108.969C289.015 109.365 288.296 109.708 287.546 110C286.817 110.292 286.057 110.521 285.265 110.688C284.494 110.854 283.682 110.938 282.827 110.938L282.327 111C281.64 111 280.952 110.927 280.265 110.781C279.598 110.615 278.973 110.375 278.39 110.062C277.807 109.729 277.286 109.312 276.827 108.812C276.369 108.312 276.015 107.708 275.765 107C275.577 106.438 275.432 105.771 275.327 105C275.223 104.229 275.14 103.427 275.077 102.594C275.036 101.76 274.994 100.948 274.952 100.156C274.932 99.3438 274.911 98.625 274.89 98C274.577 91.625 274.327 85.25 274.14 78.875C274.098 78.1458 274.067 77.4167 274.046 76.6875C274.025 75.9583 274.015 75.2292 274.015 74.5C274.015 73.25 274.088 72.1875 274.234 71.3125C274.38 70.4375 274.671 69.7188 275.109 69.1562C275.546 68.5938 276.171 68.1875 276.984 67.9375C277.817 67.6875 278.911 67.5625 280.265 67.5625C281.619 67.5625 282.973 67.5729 284.327 67.5938C285.702 67.6146 287.077 67.625 288.452 67.625C288.869 67.625 289.286 67.6146 289.702 67.5938C290.119 67.5521 290.536 67.5833 290.952 67.6875C291.202 67.7292 291.421 67.8021 291.609 67.9062C291.796 67.9896 291.89 68.1875 291.89 68.5C291.89 69.25 291.64 69.8125 291.14 70.1875C290.64 70.5417 290.046 70.7812 289.359 70.9062C288.671 71.0312 287.952 71.0938 287.202 71.0938C286.473 71.0729 285.869 71.0625 285.39 71.0625H281.327C280.911 71.0625 280.494 71.0625 280.077 71.0625C279.661 71.0625 279.244 71.0833 278.827 71.125C278.702 71.4375 278.619 71.7604 278.577 72.0938C278.536 72.4271 278.515 72.7708 278.515 73.125C278.515 75.3958 278.567 77.6354 278.671 79.8438C278.796 82.0521 278.911 84.2917 279.015 86.5625C280.307 86.4583 281.588 86.3333 282.859 86.1875C284.13 86.0417 285.411 85.875 286.702 85.6875C286.89 85.6875 287.057 85.6771 287.202 85.6562C287.369 85.6354 287.536 85.625 287.702 85.625C288.14 85.625 288.442 85.7396 288.609 85.9688C288.796 86.1979 288.89 86.5208 288.89 86.9375C288.89 87.2292 288.869 87.5 288.827 87.75C288.807 88 288.744 88.25 288.64 88.5C288.494 88.9167 288.255 89.2188 287.921 89.4062C287.588 89.5938 287.213 89.7292 286.796 89.8125C286.38 89.875 285.942 89.9062 285.484 89.9062C285.046 89.9062 284.661 89.9167 284.327 89.9375C283.452 89.9792 282.588 90.0104 281.734 90.0312C280.9 90.0521 280.057 90.0833 279.202 90.125C279.223 90.5625 279.255 91.2188 279.296 92.0938C279.338 92.9688 279.38 93.9583 279.421 95.0625C279.484 96.1458 279.546 97.2708 279.609 98.4375C279.692 99.6042 279.775 100.708 279.859 101.75C279.942 102.771 280.036 103.667 280.14 104.438C280.244 105.208 280.348 105.729 280.452 106C280.682 106.438 280.942 106.729 281.234 106.875C281.525 107 281.911 107.062 282.39 107.062C283.161 107.062 283.973 106.917 284.827 106.625C285.682 106.312 286.515 105.927 287.327 105.469C288.14 104.99 288.911 104.469 289.64 103.906C290.39 103.344 291.036 102.792 291.577 102.25C291.807 102.062 292.036 101.875 292.265 101.688C292.494 101.479 292.765 101.375 293.077 101.375C293.39 101.375 293.692 101.469 293.984 101.656C294.275 101.844 294.536 102.083 294.765 102.375C294.994 102.646 295.171 102.948 295.296 103.281C295.442 103.615 295.515 103.917 295.515 104.188ZM328.269 101.125C328.269 102.667 328.019 104.125 327.519 105.5C327.019 106.875 326.3 108.083 325.363 109.125C324.446 110.146 323.331 110.958 322.019 111.562C320.706 112.188 319.248 112.5 317.644 112.5C316.227 112.5 314.915 112.271 313.706 111.812C312.519 111.375 311.488 110.75 310.613 109.938C309.738 109.125 309.05 108.135 308.55 106.969C308.071 105.802 307.831 104.5 307.831 103.062C307.831 102.771 307.842 102.406 307.863 101.969C307.883 101.531 307.946 101.115 308.05 100.719C308.175 100.302 308.342 99.9583 308.55 99.6875C308.779 99.3958 309.102 99.25 309.519 99.25C309.852 99.25 310.217 99.3229 310.613 99.4688C311.029 99.5938 311.415 99.7708 311.769 100C312.123 100.229 312.415 100.51 312.644 100.844C312.894 101.156 313.019 101.5 313.019 101.875V103.688C313.019 105.125 313.404 106.302 314.175 107.219C314.967 108.115 316.102 108.562 317.581 108.562C318.623 108.562 319.519 108.323 320.269 107.844C321.019 107.365 321.623 106.75 322.081 106C322.56 105.25 322.904 104.417 323.113 103.5C323.342 102.562 323.456 101.646 323.456 100.75C323.456 99 323.092 97.3021 322.363 95.6562C321.654 94.0104 320.758 92.4062 319.675 90.8438C318.592 89.2604 317.415 87.7083 316.144 86.1875C314.873 84.6667 313.696 83.1562 312.613 81.6562C311.529 80.1562 310.623 78.6562 309.894 77.1562C309.185 75.6562 308.831 74.125 308.831 72.5625C308.831 71.2917 309.081 70.1979 309.581 69.2812C310.102 68.3438 310.779 67.5833 311.613 67C312.467 66.3958 313.425 65.9583 314.488 65.6875C315.571 65.3958 316.685 65.25 317.831 65.25C319.227 65.25 320.477 65.4479 321.581 65.8438C322.685 66.2396 323.623 66.8125 324.394 67.5625C325.165 68.3125 325.748 69.2396 326.144 70.3438C326.56 71.4271 326.769 72.6667 326.769 74.0625C326.769 74.2708 326.758 74.5312 326.738 74.8438C326.717 75.1562 326.665 75.4688 326.581 75.7812C326.498 76.0729 326.373 76.3333 326.206 76.5625C326.04 76.7708 325.81 76.875 325.519 76.875C325.102 76.875 324.685 76.7708 324.269 76.5625C323.915 76.375 323.623 76.1979 323.394 76.0312C323.185 75.8438 323.019 75.6458 322.894 75.4375C322.769 75.2083 322.675 74.9583 322.613 74.6875C322.55 74.4167 322.498 74.0833 322.456 73.6875C322.352 72.9375 322.217 72.2604 322.05 71.6562C321.883 71.0521 321.633 70.5417 321.3 70.125C320.967 69.7083 320.529 69.3854 319.988 69.1562C319.446 68.9271 318.748 68.8125 317.894 68.8125C317.29 68.8125 316.706 68.875 316.144 69C315.602 69.125 315.123 69.3333 314.706 69.625C314.31 69.9167 313.988 70.3021 313.738 70.7812C313.508 71.2396 313.394 71.8125 313.394 72.5C313.394 73.4583 313.602 74.4375 314.019 75.4375C314.456 76.4375 315.019 77.4583 315.706 78.5C316.415 79.5417 317.206 80.6146 318.081 81.7188C318.977 82.8021 319.894 83.9271 320.831 85.0938C321.769 86.2604 322.675 87.4688 323.55 88.7188C324.446 89.9479 325.238 91.2292 325.925 92.5625C326.633 93.8958 327.196 95.2812 327.613 96.7188C328.05 98.1354 328.269 99.6042 328.269 101.125ZM365.397 104.188C365.397 104.542 365.252 104.885 364.96 105.219C364.689 105.552 364.356 105.875 363.96 106.188C363.564 106.5 363.158 106.792 362.741 107.062C362.325 107.312 361.981 107.521 361.71 107.688C361.002 108.146 360.293 108.573 359.585 108.969C358.897 109.365 358.179 109.708 357.429 110C356.7 110.292 355.939 110.521 355.147 110.688C354.377 110.854 353.564 110.938 352.71 110.938L352.21 111C351.522 111 350.835 110.927 350.147 110.781C349.481 110.615 348.856 110.375 348.272 110.062C347.689 109.729 347.168 109.312 346.71 108.812C346.252 108.312 345.897 107.708 345.647 107C345.46 106.438 345.314 105.771 345.21 105C345.106 104.229 345.022 103.427 344.96 102.594C344.918 101.76 344.877 100.948 344.835 100.156C344.814 99.3438 344.793 98.625 344.772 98C344.46 91.625 344.21 85.25 344.022 78.875C343.981 78.1458 343.95 77.4167 343.929 76.6875C343.908 75.9583 343.897 75.2292 343.897 74.5C343.897 73.25 343.97 72.1875 344.116 71.3125C344.262 70.4375 344.554 69.7188 344.991 69.1562C345.429 68.5938 346.054 68.1875 346.866 67.9375C347.7 67.6875 348.793 67.5625 350.147 67.5625C351.502 67.5625 352.856 67.5729 354.21 67.5938C355.585 67.6146 356.96 67.625 358.335 67.625C358.752 67.625 359.168 67.6146 359.585 67.5938C360.002 67.5521 360.418 67.5833 360.835 67.6875C361.085 67.7292 361.304 67.8021 361.491 67.9062C361.679 67.9896 361.772 68.1875 361.772 68.5C361.772 69.25 361.522 69.8125 361.022 70.1875C360.522 70.5417 359.929 70.7812 359.241 70.9062C358.554 71.0312 357.835 71.0938 357.085 71.0938C356.356 71.0729 355.752 71.0625 355.272 71.0625H351.21C350.793 71.0625 350.377 71.0625 349.96 71.0625C349.543 71.0625 349.127 71.0833 348.71 71.125C348.585 71.4375 348.502 71.7604 348.46 72.0938C348.418 72.4271 348.397 72.7708 348.397 73.125C348.397 75.3958 348.45 77.6354 348.554 79.8438C348.679 82.0521 348.793 84.2917 348.897 86.5625C350.189 86.4583 351.47 86.3333 352.741 86.1875C354.012 86.0417 355.293 85.875 356.585 85.6875C356.772 85.6875 356.939 85.6771 357.085 85.6562C357.252 85.6354 357.418 85.625 357.585 85.625C358.022 85.625 358.325 85.7396 358.491 85.9688C358.679 86.1979 358.772 86.5208 358.772 86.9375C358.772 87.2292 358.752 87.5 358.71 87.75C358.689 88 358.627 88.25 358.522 88.5C358.377 88.9167 358.137 89.2188 357.804 89.4062C357.47 89.5938 357.095 89.7292 356.679 89.8125C356.262 89.875 355.825 89.9062 355.366 89.9062C354.929 89.9062 354.543 89.9167 354.21 89.9375C353.335 89.9792 352.47 90.0104 351.616 90.0312C350.783 90.0521 349.939 90.0833 349.085 90.125C349.106 90.5625 349.137 91.2188 349.179 92.0938C349.22 92.9688 349.262 93.9583 349.304 95.0625C349.366 96.1458 349.429 97.2708 349.491 98.4375C349.575 99.6042 349.658 100.708 349.741 101.75C349.825 102.771 349.918 103.667 350.022 104.438C350.127 105.208 350.231 105.729 350.335 106C350.564 106.438 350.825 106.729 351.116 106.875C351.408 107 351.793 107.062 352.272 107.062C353.043 107.062 353.856 106.917 354.71 106.625C355.564 106.312 356.397 105.927 357.21 105.469C358.022 104.99 358.793 104.469 359.522 103.906C360.272 103.344 360.918 102.792 361.46 102.25C361.689 102.062 361.918 101.875 362.147 101.688C362.377 101.479 362.647 101.375 362.96 101.375C363.272 101.375 363.575 101.469 363.866 101.656C364.158 101.844 364.418 102.083 364.647 102.375C364.877 102.646 365.054 102.948 365.179 103.281C365.325 103.615 365.397 103.917 365.397 104.188Z" fill="white"/>
<path d="M129.557 151V127.727H137.852C139.655 127.727 141.152 128.038 142.341 128.659C143.538 129.28 144.432 130.14 145.023 131.239C145.614 132.33 145.909 133.591 145.909 135.023C145.909 136.447 145.61 137.701 145.011 138.784C144.42 139.86 143.527 140.697 142.33 141.295C141.14 141.894 139.644 142.193 137.841 142.193H131.557V139.17H137.523C138.659 139.17 139.583 139.008 140.295 138.682C141.015 138.356 141.542 137.883 141.875 137.261C142.208 136.64 142.375 135.894 142.375 135.023C142.375 134.144 142.205 133.383 141.864 132.739C141.53 132.095 141.004 131.602 140.284 131.261C139.572 130.913 138.636 130.739 137.477 130.739H133.068V151H129.557ZM141.045 140.5L146.795 151H142.795L137.159 140.5H141.045ZM154.022 151V127.727H168.613V130.75H157.533V137.841H167.851V140.852H157.533V147.977H168.749V151H154.022ZM189.836 133.841C189.715 132.765 189.215 131.932 188.336 131.341C187.457 130.742 186.351 130.443 185.018 130.443C184.064 130.443 183.238 130.595 182.541 130.898C181.844 131.193 181.302 131.602 180.916 132.125C180.537 132.64 180.348 133.227 180.348 133.886C180.348 134.439 180.476 134.917 180.734 135.318C180.999 135.72 181.344 136.057 181.768 136.33C182.2 136.595 182.662 136.818 183.154 137C183.647 137.174 184.12 137.318 184.575 137.432L186.848 138.023C187.59 138.205 188.351 138.451 189.132 138.761C189.912 139.072 190.635 139.481 191.302 139.989C191.969 140.496 192.507 141.125 192.916 141.875C193.332 142.625 193.541 143.523 193.541 144.568C193.541 145.886 193.2 147.057 192.518 148.08C191.844 149.102 190.863 149.909 189.575 150.5C188.295 151.091 186.745 151.386 184.927 151.386C183.185 151.386 181.677 151.11 180.404 150.557C179.132 150.004 178.135 149.22 177.416 148.205C176.696 147.182 176.298 145.97 176.223 144.568H179.745C179.814 145.409 180.086 146.11 180.564 146.67C181.048 147.223 181.666 147.636 182.416 147.909C183.173 148.174 184.003 148.307 184.904 148.307C185.897 148.307 186.779 148.152 187.552 147.841C188.332 147.523 188.946 147.083 189.393 146.523C189.84 145.955 190.064 145.292 190.064 144.534C190.064 143.845 189.867 143.28 189.473 142.841C189.086 142.402 188.56 142.038 187.893 141.75C187.234 141.462 186.488 141.208 185.654 140.989L182.904 140.239C181.041 139.731 179.564 138.985 178.473 138C177.389 137.015 176.848 135.712 176.848 134.091C176.848 132.75 177.211 131.58 177.939 130.58C178.666 129.58 179.651 128.803 180.893 128.25C182.135 127.689 183.537 127.409 185.098 127.409C186.673 127.409 188.064 127.686 189.268 128.239C190.48 128.792 191.435 129.553 192.132 130.523C192.829 131.485 193.192 132.591 193.223 133.841H189.836ZM200.429 130.75V127.727H218.44V130.75H211.179V151H207.679V130.75H200.429ZM225.476 151H221.749L230.124 127.727H234.181L242.556 151H238.829L232.249 131.955H232.067L225.476 151ZM226.101 141.886H238.192V144.841H226.101V141.886ZM264.723 127.727H268.245V143.034C268.245 144.663 267.863 146.106 267.098 147.364C266.333 148.614 265.257 149.598 263.87 150.318C262.484 151.03 260.859 151.386 258.995 151.386C257.139 151.386 255.518 151.03 254.132 150.318C252.745 149.598 251.67 148.614 250.905 147.364C250.139 146.106 249.757 144.663 249.757 143.034V127.727H253.268V142.75C253.268 143.803 253.499 144.739 253.961 145.557C254.431 146.375 255.094 147.019 255.95 147.489C256.806 147.951 257.821 148.182 258.995 148.182C260.177 148.182 261.196 147.951 262.052 147.489C262.916 147.019 263.575 146.375 264.03 145.557C264.492 144.739 264.723 143.803 264.723 142.75V127.727ZM277.191 151V127.727H285.486C287.289 127.727 288.785 128.038 289.975 128.659C291.172 129.28 292.066 130.14 292.656 131.239C293.247 132.33 293.543 133.591 293.543 135.023C293.543 136.447 293.244 137.701 292.645 138.784C292.054 139.86 291.16 140.697 289.963 141.295C288.774 141.894 287.278 142.193 285.475 142.193H279.191V139.17H285.156C286.293 139.17 287.217 139.008 287.929 138.682C288.649 138.356 289.175 137.883 289.509 137.261C289.842 136.64 290.009 135.894 290.009 135.023C290.009 134.144 289.838 133.383 289.497 132.739C289.164 132.095 288.638 131.602 287.918 131.261C287.206 130.913 286.27 130.739 285.111 130.739H280.702V151H277.191ZM288.679 140.5L294.429 151H290.429L284.793 140.5H288.679ZM303.621 151H299.894L308.269 127.727H312.326L320.701 151H316.974L310.394 131.955H310.212L303.621 151ZM304.246 141.886H316.337V144.841H304.246V141.886ZM346.686 127.727V151H343.459L331.629 133.932H331.413V151H327.902V127.727H331.152L342.993 144.818H343.209V127.727H346.686ZM354.5 130.75V127.727H372.512V130.75H365.25V151H361.75V130.75H354.5Z" fill="#E4C590"/>
<circle cx="54.5" cy="107.5" r="54.5" fill="#E4C590"/>
<circle cx="55" cy="108" r="35" stroke="white" stroke-width="10"/>
<ellipse cx="116.5" cy="25.9628" rx="14.5" ry="25.9628" fill="#E4C590"/>
<path d="M125 129.305C125 163.044 121.5 158.832 115 158.832C106.992 158.832 108 133.887 111 97.2337C113.45 67.302 111 46.3262 113.5 34.6174C120.5 34.6174 125 95.5669 125 129.305Z" fill="#E4C590"/>
</svg>
